<svg xmlns="http://www.w3.org/2000/svg" xmlns:xlink="http://www.w3.org/1999/xlink" version="1.1" x="0px" y="0px" viewBox="0 0 96 96" style="enable-background:new 0 0 96 96;" xml:space="preserve"><g><path d="M71,36h-5v2h5c0.6,0,1,0.4,1,1v29h-2V41c0-0.6-0.4-1-1-1h-3v2h2v26H28V42h2v-2h-3c-0.6,0-1,0.4-1,1v27h-2V39   c0-0.6,0.4-1,1-1h5.1v-2H25c-1.7,0-3,1.3-3,3v36c0,1.7,1.3,3,3,3h17v6h-1c-2.4,0-4.4,1.7-4.9,4H22v2h15h22h15v-2H59.9   c-0.5-2.3-2.5-4-4.9-4h-1v-6h17c1.7,0,3-1.3,3-3V39C74,37.3,72.7,36,71,36z M57.8,88H38.2c0.4-1.2,1.5-2,2.8-2h2h10h2   C56.3,86,57.4,86.8,57.8,88z M52,84h-8v-6h8V84z M71,76H53H43H25c-0.6,0-1-0.4-1-1v-5h3h42h3v5C72,75.6,71.6,76,71,76z M60,72h2v2   h-2V72z M64,72h2v2h-2V72z M68,72h2v2h-2V72z M33,66h30c0.6,0,1-0.4,1-1V26c0-0.6-0.4-1-1-1H33c-0.6,0-1,0.4-1,1v39   C32,65.6,32.4,66,33,66z M34,64V35h28v29H34z M62,27v6H34v-6H62z M40,31h-4v-2h4V31z M46,31h-4v-2h4V31z M60,31H50v-2h10V31z    M60,59v2.8h-2V60h-2.8c-0.4,0-0.8-0.2-0.9-0.6c-0.2-0.4-0.1-0.8,0.2-1.1l2-2l-2.8-2.8l-2,2c-0.3,0.3-0.7,0.4-1.1,0.2   c-0.4-0.2-0.6-0.5-0.6-0.9V52h-4v2.8c0,0.4-0.2,0.8-0.6,0.9c-0.4,0.2-0.8,0.1-1.1-0.2l-2-2l-2.8,2.8l2,2c0.3,0.3,0.4,0.7,0.2,1.1   c-0.2,0.4-0.5,0.6-0.9,0.6H38v2h-2v-3c0-0.6,0.4-1,1-1h1.3l-1-1c-0.4-0.4-0.4-1,0-1.4l4.2-4.2c0.4-0.4,1-0.4,1.4,0l1,1V51   c0-0.6,0.4-1,1-1h6c0.6,0,1,0.4,1,1v1.3l1-1c0.4-0.4,1-0.4,1.4,0l4.2,4.2c0.4,0.4,0.4,1,0,1.4l-1,1H59C59.6,58,60,58.4,60,59z    M53,62h-2c0-1.7-1.3-3-3-3s-3,1.3-3,3h-2c0-2.8,2.2-5,5-5S53,59.2,53,62z M50,39H36v-2h14V39z M48,43H36v-2h12V43z M50,41h4v2h-4   V41z M56,41h4v2h-4V41z M48,45h12v2H48V45z M42,47v-2h4v2H42z M40,47h-4v-2h4V47z M91,16H69c-1.7,0-3,1.3-3,3v12c0,1.7,1.3,3,3,3h7   v4c0,0.4,0.2,0.8,0.6,0.9C76.7,39,76.9,39,77,39c0.3,0,0.5-0.1,0.7-0.3l4.7-4.7h9c1.4,0,2.6-1.2,2.6-2.6V19C94,17.3,92.7,16,91,16z    M92,31.4c0,0.3-0.3,0.6-0.6,0.6H82c-0.3,0-0.5,0.1-0.7,0.3L78,35.6V33c0-0.6-0.4-1-1-1h-8c-0.6,0-1-0.4-1-1V19c0-0.6,0.4-1,1-1h22   c0.6,0,1,0.4,1,1V31.4z M75.7,22.7L73.4,25l2.3,2.3l-1.4,1.4l-3-3c-0.4-0.4-0.4-1,0-1.4l3-3L75.7,22.7z M88.7,24.3   c0.4,0.4,0.4,1,0,1.4l-3,3l-1.4-1.4l2.3-2.3l-2.3-2.3l1.4-1.4L88.7,24.3z M82.3,21.3l1.4,1.4l-6,6l-1.4-1.4L82.3,21.3z M19.2,40H21   v2h-1.8v3.8c0,0.8-0.5,1.5-1.2,1.8c-0.8,0.3-1.6,0.1-2.2-0.4l-2.7-2.7l-2.5,2.5l2.7,2.7c0.6,0.6,0.7,1.4,0.4,2.2s-1,1.2-1.8,1.2H8   v3.6h3.8c0.8,0,1.5,0.5,1.8,1.2s0.1,1.6-0.4,2.2l-2.7,2.7l2.5,2.5l2.7-2.7c0.6-0.6,1.4-0.7,2.2-0.4c0.8,0.3,1.2,1,1.2,1.8V68H21v2   h-1.8c-1.1,0-2-0.9-2-2v-3.8l-2.7,2.7c-0.4,0.4-0.9,0.6-1.4,0.6c0,0,0,0,0,0c-0.5,0-1-0.2-1.4-0.6l-2.5-2.5   c-0.4-0.4-0.6-0.9-0.6-1.4c0-0.5,0.2-1,0.6-1.4l2.7-2.7H8c-1.1,0-2-0.9-2-2v-3.6c0-1.1,0.9-2,2-2h3.8l-2.7-2.7   c-0.4-0.4-0.6-0.9-0.6-1.4c0-0.5,0.2-1,0.6-1.4l2.5-2.5c0.4-0.4,0.9-0.6,1.4-0.6c0,0,0,0,0,0c0.5,0,1,0.2,1.4,0.6l2.7,2.7V42   C17.2,40.9,18.1,40,19.2,40z M21,49v2c-2.2,0-4,1.8-4,4s1.8,4,4,4v2c-3.3,0-6-2.7-6-6S17.7,49,21,49z M28,30V6c0-1.1-0.9-2-2-2H4   C2.9,4,2,4.9,2,6v24c0,1.1,0.9,2,2,2h22C27.1,32,28,31.1,28,30z M26,6l0,4H4V6H26z M4,12h22l0,18H4V12z M8,9H6V7h2V9z M11,9H9V7h2   V9z M14,9h-2V7h2V9z M10.7,18.7L8.4,21l2.3,2.3l-1.4,1.4l-3-3c-0.4-0.4-0.4-1,0-1.4l3-3L10.7,18.7z M23.7,21.7l-3,3l-1.4-1.4   l2.3-2.3l-2.3-2.3l1.4-1.4l3,3C24.1,20.7,24.1,21.3,23.7,21.7z M17.3,17.3l1.4,1.4l-6,6l-1.4-1.4L17.3,17.3z"></path></g></svg>