<svg xmlns="http://www.w3.org/2000/svg" data-name="Layer 1" viewBox="0 0 64 64" x="0px" y="0px"><title>Regulation-rule-laws-enforcenment-legal</title><path d="M12,2A10,10,0,1,0,22,12,10.011,10.011,0,0,0,12,2ZM4,12A7.987,7.987,0,0,1,17.414,6.127L15.289,9.011A3.548,3.548,0,0,0,12.812,8h-.187V6.75a1,1,0,0,0-1.447-.895l-4.5,2.25a1,1,0,0,0,0,1.79l4.5,2.25a1,1,0,0,0,1.447-.895V10h.187a1.559,1.559,0,0,1,1.266.654L7.993,18.913A8,8,0,0,1,4,12Zm6.625-3.632V9.632L9.361,9ZM12,20a7.978,7.978,0,0,1-2.109-.291l4.484-6.086V17.25h2V11.563a3.524,3.524,0,0,0-.058-.575L18.737,7.7A7.987,7.987,0,0,1,12,20Z"></path><path d="M52,2A10,10,0,1,0,62,12,10.011,10.011,0,0,0,52,2Zm0,18A7.987,7.987,0,0,1,45.263,7.7l2.42,3.285a3.524,3.524,0,0,0-.058.575V17.25h2V13.623l4.484,6.086A7.978,7.978,0,0,1,52,20Zm4.007-1.087-6.085-8.259A1.559,1.559,0,0,1,51.188,10h.187v1.25a1,1,0,0,0,1.447.895l4.5-2.25a1,1,0,0,0,0-1.79l-4.5-2.25a1,1,0,0,0-1.447.895V8h-.187a3.548,3.548,0,0,0-2.477,1.011L46.586,6.127a7.99,7.99,0,1,1,9.421,12.786ZM53.375,9.632V8.368L54.639,9Z"></path><path d="M32.8,16.4a1.036,1.036,0,0,0-1.6,0l-3,4A1,1,0,0,0,29,22h2v6h2V22h2a1,1,0,0,0,.8-1.6ZM31,20l1-1.333L33,20Z"></path><path d="M32,12A10,10,0,1,0,42,22,10.011,10.011,0,0,0,32,12Zm0,18a8,8,0,1,1,8-8A8.009,8.009,0,0,1,32,30Z"></path><rect x="41" y="34" width="2" height="28"></rect><rect x="21" y="34" width="2" height="28"></rect><rect x="31" y="34" width="2" height="28"></rect><path d="M11,29H3a1,1,0,0,0-1,1v8H4V31h8a1,1,0,0,0,1-1V24H11Z"></path><path d="M61,29H53V24H51v6a1,1,0,0,0,1,1h8v7h2V30A1,1,0,0,0,61,29Z"></path></svg>