<svg xmlns="http://www.w3.org/2000/svg" viewBox="0 0 64 64" x="0px" y="0px"><g><path d="M61.95,50.68,58,38.84V36H56v2H8V11H6V38.84L2.05,50.68A1.185,1.185,0,0,0,2,51v4a3.009,3.009,0,0,0,3,3H7v4H9V51a1,1,0,0,1,2,0v3a1,1,0,0,0,2,0V50a1,1,0,0,1,2,0v4a1,1,0,0,0,2,0V49a1,1,0,0,1,2,0v5a1,1,0,0,0,2,0V49a1,1,0,0,1,2,0v8a1,1,0,0,0,.74.97,1.022,1.022,0,0,0,1.13-.47l2-3.46a.988.988,0,0,1,1.36-.37,1.01,1.01,0,0,1,.37,1.37L24.87,61.5l1.73,1L29.2,58h5.6l2.6,4.5,1.73-1L35.4,55.04a1.01,1.01,0,0,1,.37-1.37.99.99,0,0,1,1.36.37l2,3.46a1.022,1.022,0,0,0,1.13.47A1,1,0,0,0,41,57V49a1,1,0,0,1,2,0v5a1,1,0,0,0,2,0V49a1,1,0,0,1,2,0v5a1,1,0,0,0,2,0V50a1,1,0,0,1,2,0v4a1,1,0,0,0,2,0V51a1,1,0,0,1,2,0V62h2V58h2a3.009,3.009,0,0,0,3-3V51A1.185,1.185,0,0,0,61.95,50.68ZM7,56H5a1,1,0,0,1-1-1V52H7Zm18.13-2.96-.13.23V52h1.16A2.933,2.933,0,0,0,25.13,53.04ZM33.65,56h-3.3a3,3,0,0,0-1.03-4h5.36A3,3,0,0,0,33.65,56ZM39,53.27l-.13-.23A2.933,2.933,0,0,0,37.84,52H39ZM56.82,50A3.01,3.01,0,0,0,54,48a2.934,2.934,0,0,0-1.47.39,2.465,2.465,0,0,0-.32-.39H54V46H52v1.78A2.974,2.974,0,0,0,50,47a2.934,2.934,0,0,0-1.47.39A3,3,0,0,0,46,46a2.965,2.965,0,0,0-2,.77A2.965,2.965,0,0,0,42,46a3.009,3.009,0,0,0-3,3v1H25V49a3.009,3.009,0,0,0-3-3,2.965,2.965,0,0,0-2,.77A2.965,2.965,0,0,0,18,46a3,3,0,0,0-2.53,1.39A2.934,2.934,0,0,0,14,47a2.974,2.974,0,0,0-2,.78V46H10v2h1.79a2.465,2.465,0,0,0-.32.39A2.934,2.934,0,0,0,10,48a3.01,3.01,0,0,0-2.82,2H4.39L7.72,40H56.28l3.33,10ZM60,55a1,1,0,0,1-1,1H57V52h3Z"></path><rect x="15" y="42" width="2" height="2"></rect><rect x="11" y="42" width="2" height="2"></rect><rect x="19" y="42" width="2" height="2"></rect><rect x="23" y="42" width="2" height="2"></rect><rect x="27" y="42" width="2" height="2"></rect><rect x="31" y="42" width="2" height="2"></rect><rect x="35" y="42" width="2" height="2"></rect><rect x="39" y="42" width="2" height="2"></rect><rect x="43" y="42" width="2" height="2"></rect><rect x="47" y="42" width="2" height="2"></rect><rect x="51" y="42" width="2" height="2"></rect><path d="M8,5A1,1,0,0,1,9,4H55a1,1,0,0,1,1,1V34h2V5a3,3,0,0,0-3-3H9A3,3,0,0,0,6,5V9H8Z"></path><rect x="26" y="46" width="12" height="2"></rect><path d="M53,6H11a1,1,0,0,0-1,1V35a1,1,0,0,0,1,1H53a1,1,0,0,0,1-1V7A1,1,0,0,0,53,6ZM52,34H12V8H52Z"></path><path d="M18,27h1v4h2V27h1a1,1,0,0,0,1-1V16a1,1,0,0,0-1-1H21V12H19v3H18a1,1,0,0,0-1,1V26A1,1,0,0,0,18,27Zm1-10h2v8H19Z"></path><path d="M26,25h1v2h2V25h1a1,1,0,0,0,1-1V20a1,1,0,0,0-1-1H29V11H27v8H26a1,1,0,0,0-1,1v4A1,1,0,0,0,26,25Zm1-4h2v2H27Z"></path><path d="M34,21h1v7h2V21h1a1,1,0,0,0,1-1V16a1,1,0,0,0-1-1H37V11H35v4H34a1,1,0,0,0-1,1v4A1,1,0,0,0,34,21Zm1-4h2v2H35Z"></path><path d="M42,27h1v2h2V27h1a1,1,0,0,0,1-1V18a1,1,0,0,0-1-1H45V13H43v4H42a1,1,0,0,0-1,1v8A1,1,0,0,0,42,27Zm1-8h2v6H43Z"></path></g></svg>